<svg preserveAspectRatio="none" width="100%" height="100%" overflow="visible" style="display: block;" viewBox="0 0 16.3118 22.8494" fill="none" xmlns="http://www.w3.org/2000/svg">
<g id="Icon">
<path id="Vector" d="M9.74399 1.67946L9.72804 1.69971C8.88598 2.72595 8.35491 3.98175 8.19224 5.33038V5.33713L8.15716 5.39283L8.12207 5.33713V5.33038C7.9578 3.98175 7.42673 2.72595 6.58626 1.69971L6.57031 1.67946L8.15716 0L9.74399 1.67946Z" fill="var(--fill-0, black)"/>
<path id="Vector_2" d="M8.14735 13.9257C8.14735 13.9257 8.15214 13.9392 8.15373 13.9476C8.15373 13.9476 8.15852 13.9341 8.16012 13.9257C8.50619 11.7145 10.1457 9.96587 12.2285 9.57935L13.659 5.69043C10.8346 5.69043 8.3196 8.09231 8.15373 11.1964C7.98947 8.09062 5.47285 5.69043 2.64844 5.69043L4.07898 9.57935C6.16181 9.96587 7.80128 11.7145 8.14735 13.9257Z" fill="var(--fill-0, black)"/>
<path id="Vector_3" d="M8.56256 18.1503C8.94851 16.6987 10.2132 15.6843 11.639 15.6843C11.8846 15.6843 12.2625 15.7282 12.6549 15.8632L16.3118 11.9962L16.2352 11.9506C15.3836 11.4476 14.5112 11.2046 13.5687 11.2046C10.9149 11.2046 8.62954 13.2486 8.15588 15.902C7.68222 13.2503 5.39685 11.2046 2.74308 11.2046C1.80055 11.2046 0.926589 11.4493 0.0765528 11.9506L0 11.9962L3.65531 15.8649C4.1226 15.686 4.42242 15.6843 4.6744 15.6843C6.10017 15.6843 7.36645 16.6987 7.7508 18.1503L7.79067 18.2988C7.83692 18.5115 7.86403 18.7292 7.87041 18.9436V19.266C7.7811 20.9201 6.5834 22.2519 5.02367 22.4291L4.99337 22.4325L4.59945 22.8494H11.7187L11.3248 22.4325L11.2945 22.4291C9.73315 22.2519 8.53545 20.9201 8.44774 19.266V18.9436C8.45411 18.7275 8.48123 18.5115 8.52748 18.2988L8.56735 18.1503H8.56256Z" fill="var(--fill-0, black)"/>
</g>
</svg>
