<svg preserveAspectRatio="none" width="100%" height="100%" overflow="visible" style="display: block;" viewBox="0 0 102 14" fill="none" xmlns="http://www.w3.org/2000/svg">
<g id="Logo_Text_Black">
<g id="Vector">
<path d="M49.5544 11.2303C49.1074 11.7541 47.9075 12.9023 45.6382 12.9023H45.6268C43.3167 12.9023 42.1496 11.7607 41.7121 11.2406C41.2691 10.716 40.3314 9.24756 40.3314 6.94018C40.3314 4.46052 41.2368 3.21443 41.6812 2.70495C42.1202 2.19879 43.2458 1.09774 45.6128 1.09774H45.6253C47.9961 1.09774 49.0831 2.19069 49.5261 2.69612C49.972 3.20486 50.8815 4.44322 50.8815 6.92766C50.8815 9.57703 50.0014 10.7031 49.5544 11.2303ZM45.6066 0C41.3092 0 38.5462 3.47211 38.5462 6.92582C38.5462 10.3232 41.1673 14 45.6011 14C49.2849 14 52.6666 11.0687 52.6666 6.92582C52.6666 2.81539 49.2496 0 45.6066 0Z" fill="var(--fill-0, black)"/>
<path d="M17.7147 0.275267C17.7147 0.275267 17.5397 1.62848 17.5397 2.03231V8.92463C17.5397 10.914 16.656 11.9775 16.1428 12.4914C15.5984 13.0365 14.0614 13.9995 12.1072 13.9995C10.207 13.9995 8.70527 13.02 8.17297 12.4866C7.69985 12.0132 6.6981 10.8694 6.6981 8.86536V2.37871C6.6981 2.16925 6.66061 1.44147 6.58561 0.630503L6.57422 0.275267H8.48102V9.14477C8.48102 10.6717 9.1964 11.525 9.5324 11.874C9.86692 12.223 10.7624 13.01 12.3612 13.01C13.9717 13.01 14.854 12.223 15.1844 11.8748C15.5164 11.5276 16.2218 10.618 16.2218 9.14477V2.11219C16.2218 1.63216 16.0108 0.275267 16.0108 0.275267H17.7147Z" fill="var(--fill-0, black)"/>
<path d="M76.8513 10.8609V3.13593C76.8513 1.94433 76.8749 1.3984 77.0168 0.51749L77.0193 0.275267H74.8978L74.9008 0.51749C75.0423 1.3984 75.0658 1.94433 75.0658 3.13593V10.8609C75.0658 12.0529 75.0423 12.5985 74.9008 13.4798L74.8978 13.7216H77.0193L77.0168 13.4798C76.8749 12.5985 76.8513 12.0529 76.8513 10.8609Z" fill="var(--fill-0, black)"/>
<path d="M65.0701 0.275267H58.7023L58.7049 0.51749C58.72 0.610993 58.8574 1.6421 58.8574 2.08163L58.8703 10.8609C58.8703 12.0526 58.8468 12.5985 58.7049 13.4794L58.7023 13.7216H60.8238L60.8209 13.4794C60.6793 12.5985 60.6554 12.0526 60.6554 10.8609V1.2217H64.1937C65.5792 1.2217 67.1978 2.42877 67.1978 4.31134C67.1978 5.76468 66.1053 7.44552 64.1121 7.44552H61.6256L62.0858 8.39601H64.4646C67.7331 8.39601 68.9925 6.13722 68.9925 4.25944C68.9925 2.34963 67.3872 0.275267 65.0701 0.275267Z" fill="var(--fill-0, black)"/>
<path d="M29.5637 10.8609C29.5637 10.8609 29.5696 7.44515 29.581 1.16833C31.2334 1.22355 32.8472 1.49853 34.4118 1.83757H34.7048L34.5335 0.275267H22.7853L22.6136 1.83757H22.9298C24.4943 1.49853 26.1078 1.22391 27.7602 1.1687L27.7782 10.8609C27.7782 12.0529 27.7547 12.5985 27.6132 13.4798L27.6102 13.7216H29.7317L29.7291 13.4798C29.5872 12.5985 29.5637 12.0529 29.5637 10.8609Z" fill="var(--fill-0, black)"/>
<path d="M89.3671 0.275267H87.3192C87.4239 0.561665 87.4879 0.867572 87.5041 1.18673C87.5379 1.63216 87.4651 2.07979 87.2883 2.49945C87.2754 2.53185 81.9973 13.7198 81.9973 13.7198H83.4306L84.5165 11.4271C85.0223 10.3419 86.1061 9.64431 87.3023 9.634L90.7119 9.60381L90.2568 8.67468H85.8178L88.5794 2.8061L92.8731 12.001C93.101 12.4866 93.3072 13.0454 93.4168 13.5773L93.4462 13.7198H95.6581L89.3671 0.275267Z" fill="var(--fill-0, black)"/>
</g>
</g>
</svg>
