<svg preserveAspectRatio="xMidYMid meet" width="1200" height="189" viewBox="0 0 1200 188.586" fill="none" xmlns="http://www.w3.org/2000/svg" aria-hidden="true">
<g id="Social media icons">
<path id="Vector" d="M578.955 151.277C572.934 158.333 556.771 173.799 526.203 173.799H526.05C494.932 173.799 479.21 158.422 473.317 151.415C467.35 144.349 454.718 124.569 454.718 93.4874C454.718 60.0852 466.915 43.2998 472.901 36.4369C478.814 29.6186 493.976 14.787 525.861 14.787H526.03C557.964 14.787 572.607 29.5095 578.574 36.3179C584.581 43.1709 596.831 59.8521 596.831 93.3188C596.831 129.007 584.977 144.176 578.955 151.277ZM525.777 0C467.89 0 430.672 46.7709 430.672 93.294C430.672 139.058 465.979 188.586 525.703 188.586C575.326 188.586 620.878 149.1 620.878 93.294C620.878 37.9245 574.85 0 525.777 0Z" fill="var(--fill-0, #E5DACB)" fill-opacity="0.8"/>
<path id="Vector_2" d="M150.066 3.65614C150.066 3.65614 147.709 21.8845 147.709 27.3243V120.167C147.709 146.964 135.805 161.29 128.892 168.212C121.558 175.556 100.854 188.528 74.5304 188.528C48.9343 188.528 28.7059 175.333 21.5356 168.148C15.1626 161.771 1.66878 146.364 1.66878 119.369V31.9904C1.66878 29.1689 1.16369 19.3655 0.153508 8.44133L0 3.65614H25.6853V123.132C25.6853 143.701 35.3216 155.196 39.8476 159.896C44.3538 164.597 56.4165 175.199 77.9522 175.199C99.6462 175.199 111.531 164.597 115.982 159.906C120.454 155.23 129.957 142.977 129.957 123.132V28.4003C129.957 21.9341 127.114 3.65614 127.114 3.65614H150.066Z" fill="var(--fill-0, #E5DACB)" fill-opacity="0.8"/>
<path id="Vector_3" d="M946.65 146.25V42.1907C946.65 26.1392 946.967 18.7854 948.878 6.91911L948.913 3.65625H920.336L920.376 6.91911C922.282 18.7854 922.599 26.1392 922.599 42.1907V146.25C922.599 162.307 922.282 169.655 920.376 181.527L920.336 184.785H948.913L948.878 181.527C946.967 169.655 946.65 162.307 946.65 146.25Z" fill="var(--fill-0, #E5DACB)" fill-opacity="0.8"/>
<path id="Vector_4" d="M787.987 3.65625H702.211L702.246 6.91911C702.449 8.17864 704.301 22.0681 704.301 27.9888L704.474 146.25C704.474 162.302 704.157 169.655 702.246 181.522L702.211 184.785H730.788L730.748 181.522C728.842 169.655 728.52 162.302 728.52 146.25V16.4052H776.182C794.845 16.4052 816.648 32.6649 816.648 58.024C816.648 77.6011 801.931 100.243 775.082 100.243H741.588L747.788 113.046H779.831C823.858 113.046 840.823 82.6194 840.823 57.3248C840.823 31.5988 819.199 3.65625 787.987 3.65625Z" fill="var(--fill-0, #E5DACB)" fill-opacity="0.8"/>
<path id="Vector_5" d="M309.702 146.25C309.702 146.25 309.781 100.238 309.935 15.6862C332.193 16.43 353.932 20.1342 375.007 24.7012H378.954L376.646 3.65625H218.395L216.082 24.7012H220.341C241.416 20.1342 263.149 16.435 285.408 15.6911L285.651 146.25C285.651 162.307 285.334 169.655 283.427 181.527L283.388 184.785H311.965L311.93 181.527C310.019 169.655 309.702 162.307 309.702 146.25Z" fill="var(--fill-0, #E5DACB)" fill-opacity="0.8"/>
<path id="Vector_6" d="M1115.26 3.65625H1087.67C1089.08 7.51416 1089.95 11.6349 1090.16 15.9341C1090.62 21.9342 1089.64 27.964 1087.26 33.617C1087.08 34.0534 1015.98 184.76 1015.98 184.76H1035.29L1049.92 153.877C1056.73 139.258 1071.33 129.861 1087.44 129.723L1133.37 129.316L1127.24 116.8H1067.45L1104.65 37.7477L1162.49 161.607C1165.56 168.148 1168.33 175.675 1169.81 182.841L1170.21 184.76H1200L1115.26 3.65625Z" fill="var(--fill-0, #E5DACB)" fill-opacity="0.8"/>
</g>
</svg>
