<svg width="100" height="114" viewBox="0 0 100 114" fill="none" xmlns="http://www.w3.org/2000/svg">
<path d="M53.4042 26.098L53.37 26.1414C51.564 28.3424 50.425 31.0357 50.0762 33.928V33.9425L50.0009 34.062L49.9257 33.9425V33.928C49.5734 31.0357 48.4344 28.3424 46.6319 26.1414L46.5977 26.098L50.0009 22.4961L53.4042 26.098Z" fill="white"/>
<path d="M49.9907 52.3651C49.9907 52.3651 50.0009 52.3941 50.0044 52.4122C50.0044 52.4122 50.0146 52.3832 50.0181 52.3651C50.7603 47.6229 54.2764 43.8726 58.7434 43.0436L61.8115 34.7031C55.754 34.7031 50.3601 39.8544 50.0044 46.5116C49.6521 39.8508 44.2547 34.7031 38.1973 34.7031L41.2653 43.0436C45.7323 43.8726 49.2485 47.6229 49.9907 52.3651Z" fill="white"/>
<path d="M50.8718 61.4236C51.6995 58.3104 54.4118 56.1348 57.4697 56.1348C57.9964 56.1348 58.807 56.2289 59.6484 56.5185L67.4913 48.2251L67.3272 48.1274C65.5007 47.0486 63.6297 46.5273 61.6083 46.5273C55.9168 46.5273 51.0154 50.9112 49.9996 56.6018C48.9837 50.9148 44.0823 46.5273 38.3908 46.5273C36.3694 46.5273 34.495 47.0522 32.672 48.1274L32.5078 48.2251L40.3473 56.5222C41.3495 56.1384 41.9925 56.1348 42.5329 56.1348C45.5907 56.1348 48.3065 58.3104 49.1308 61.4236L49.2163 61.7422C49.3155 62.1983 49.3736 62.6653 49.3873 63.125V63.8165C49.1958 67.3641 46.6271 70.2202 43.282 70.6003L43.217 70.6076L42.3722 71.5017H57.6407L56.7958 70.6076L56.7309 70.6003C53.3823 70.2202 50.8136 67.3641 50.6255 63.8165V63.125C50.6392 62.6617 50.6973 62.1983 50.7965 61.7422L50.882 61.4236H50.8718Z" fill="white"/>
<path d="M48.471 110.985C48.0337 111.498 46.86 112.621 44.6403 112.621H44.6292C42.3695 112.621 41.2278 111.504 40.7999 110.995C40.3666 110.482 39.4493 109.046 39.4493 106.789C39.4493 104.363 40.335 103.144 40.7697 102.646C41.199 102.151 42.3001 101.074 44.6155 101.074H44.6277C46.9467 101.074 48.01 102.143 48.4433 102.637C48.8795 103.135 49.7691 104.346 49.7691 106.776C49.7691 109.368 48.9083 110.469 48.471 110.985ZM44.6094 100C40.4058 100 37.7031 103.396 37.7031 106.775C37.7031 110.098 40.267 113.694 44.604 113.694C48.2074 113.694 51.5153 110.827 51.5153 106.775C51.5153 102.754 48.1729 100 44.6094 100Z" fill="white"/>
<path d="M17.327 100.27C17.327 100.27 17.1558 101.593 17.1558 101.988V108.73C17.1558 110.676 16.2914 111.716 15.7894 112.219C15.2569 112.752 13.7534 113.694 11.8418 113.694C9.98314 113.694 8.51422 112.736 7.99354 112.214C7.53075 111.751 6.55087 110.632 6.55087 108.672V102.327C6.55087 102.122 6.51419 101.41 6.44083 100.617L6.42969 100.27H8.29487V108.945C8.29487 110.439 8.99463 111.274 9.32329 111.615C9.65052 111.956 10.5265 112.726 12.0903 112.726C13.6657 112.726 14.5287 111.956 14.852 111.616C15.1767 111.276 15.8667 110.386 15.8667 108.945V102.066C15.8667 101.597 15.6603 100.27 15.6603 100.27H17.327Z" fill="white"/>
<path d="M75.1726 110.624V103.068C75.1726 101.902 75.1956 101.368 75.3344 100.506L75.3369 100.27H73.2617L73.2646 100.506C73.403 101.368 73.4261 101.902 73.4261 103.068V110.624C73.4261 111.79 73.403 112.324 73.2646 113.186L73.2617 113.422H75.3369L75.3344 113.186C75.1956 112.324 75.1726 111.79 75.1726 110.624Z" fill="white"/>
<path d="M63.6487 100.27H57.4199L57.4224 100.506C57.4372 100.598 57.5717 101.607 57.5717 102.036L57.5843 110.624C57.5843 111.79 57.5612 112.324 57.4224 113.185L57.4199 113.422H59.4951L59.4922 113.185C59.3538 112.324 59.3304 111.79 59.3304 110.624V101.195H62.7914C64.1467 101.195 65.73 102.376 65.73 104.218C65.73 105.639 64.6613 107.283 62.7116 107.283H60.2794L60.7296 108.213H63.0565C66.2536 108.213 67.4855 106.004 67.4855 104.167C67.4855 102.299 65.9152 100.27 63.6487 100.27Z" fill="white"/>
<path d="M28.9175 110.624C28.9175 110.624 28.9233 107.283 28.9344 101.143C30.5508 101.197 32.1294 101.466 33.6598 101.798H33.9464L33.7788 100.27H22.2871L22.1191 101.798H22.4284C23.9588 101.466 25.537 101.197 27.1534 101.143L27.171 110.624C27.171 111.79 27.148 112.324 27.0095 113.186L27.0067 113.422H29.0818L29.0793 113.186C28.9405 112.324 28.9175 111.79 28.9175 110.624Z" fill="white"/>
<path d="M87.4161 100.27H85.4128C85.5153 100.55 85.5778 100.849 85.5937 101.161C85.6267 101.597 85.5555 102.035 85.3826 102.445C85.37 102.477 80.207 113.421 80.207 113.421H81.6091L82.6713 111.178C83.1661 110.116 84.2261 109.434 85.3962 109.424L88.7314 109.394L88.2863 108.486H83.9442L86.6455 102.745L90.8454 111.739C91.0684 112.214 91.2701 112.761 91.3773 113.281L91.406 113.421H93.5697L87.4161 100.27Z" fill="white"/>
</svg>
