<svg preserveAspectRatio="none" width="100%" height="100%" overflow="visible" style="display: block;" viewBox="0 0 15 15" fill="none" xmlns="http://www.w3.org/2000/svg">
<g id="SVG">
<path id="Vector" fill-rule="evenodd" clip-rule="evenodd" d="M2.8125 1.40625C2.68818 1.40625 2.56895 1.45564 2.48104 1.54354C2.39314 1.63145 2.34375 1.75068 2.34375 1.875C2.34375 1.99932 2.39314 2.11855 2.48104 2.20646C2.56895 2.29436 2.68818 2.34375 2.8125 2.34375V12.6562H2.34375C2.21943 12.6562 2.1002 12.7056 2.01229 12.7935C1.92439 12.8815 1.875 13.0007 1.875 13.125C1.875 13.2493 1.92439 13.3685 2.01229 13.4565C2.1002 13.5444 2.21943 13.5938 2.34375 13.5938H12.6562C12.7806 13.5938 12.8998 13.5444 12.9877 13.4565C13.0756 13.3685 13.125 13.2493 13.125 13.125C13.125 13.0007 13.0756 12.8815 12.9877 12.7935C12.8998 12.7056 12.7806 12.6562 12.6562 12.6562H12.1875V2.34375C12.3118 2.34375 12.431 2.29436 12.519 2.20646C12.6069 2.11855 12.6562 1.99932 12.6562 1.875C12.6562 1.75068 12.6069 1.63145 12.519 1.54354C12.431 1.45564 12.3118 1.40625 12.1875 1.40625H2.8125ZM5.625 3.75C5.50068 3.75 5.38145 3.79939 5.29354 3.88729C5.20564 3.9752 5.15625 4.09443 5.15625 4.21875C5.15625 4.34307 5.20564 4.4623 5.29354 4.55021C5.38145 4.63811 5.50068 4.6875 5.625 4.6875H6.5625C6.68682 4.6875 6.80605 4.63811 6.89396 4.55021C6.98186 4.4623 7.03125 4.34307 7.03125 4.21875C7.03125 4.09443 6.98186 3.9752 6.89396 3.88729C6.80605 3.79939 6.68682 3.75 6.5625 3.75H5.625ZM5.15625 6.09375C5.15625 5.96943 5.20564 5.8502 5.29354 5.76229C5.38145 5.67439 5.50068 5.625 5.625 5.625H6.5625C6.68682 5.625 6.80605 5.67439 6.89396 5.76229C6.98186 5.8502 7.03125 5.96943 7.03125 6.09375C7.03125 6.21807 6.98186 6.3373 6.89396 6.42521C6.80605 6.51311 6.68682 6.5625 6.5625 6.5625H5.625C5.50068 6.5625 5.38145 6.51311 5.29354 6.42521C5.20564 6.3373 5.15625 6.21807 5.15625 6.09375ZM5.625 7.5C5.50068 7.5 5.38145 7.54939 5.29354 7.63729C5.20564 7.7252 5.15625 7.84443 5.15625 7.96875C5.15625 8.09307 5.20564 8.2123 5.29354 8.30021C5.38145 8.38811 5.50068 8.4375 5.625 8.4375H6.5625C6.68682 8.4375 6.80605 8.38811 6.89396 8.30021C6.98186 8.2123 7.03125 8.09307 7.03125 7.96875C7.03125 7.84443 6.98186 7.7252 6.89396 7.63729C6.80605 7.54939 6.68682 7.5 6.5625 7.5H5.625ZM7.96875 4.21875C7.96875 4.09443 8.01814 3.9752 8.10604 3.88729C8.19395 3.79939 8.31318 3.75 8.4375 3.75H9.375C9.49932 3.75 9.61855 3.79939 9.70646 3.88729C9.79436 3.9752 9.84375 4.09443 9.84375 4.21875C9.84375 4.34307 9.79436 4.4623 9.70646 4.55021C9.61855 4.63811 9.49932 4.6875 9.375 4.6875H8.4375C8.31318 4.6875 8.19395 4.63811 8.10604 4.55021C8.01814 4.4623 7.96875 4.34307 7.96875 4.21875ZM8.4375 5.625C8.31318 5.625 8.19395 5.67439 8.10604 5.76229C8.01814 5.8502 7.96875 5.96943 7.96875 6.09375C7.96875 6.21807 8.01814 6.3373 8.10604 6.42521C8.19395 6.51311 8.31318 6.5625 8.4375 6.5625H9.375C9.49932 6.5625 9.61855 6.51311 9.70646 6.42521C9.79436 6.3373 9.84375 6.21807 9.84375 6.09375C9.84375 5.96943 9.79436 5.8502 9.70646 5.76229C9.61855 5.67439 9.49932 5.625 9.375 5.625H8.4375ZM7.96875 7.96875C7.96875 7.84443 8.01814 7.7252 8.10604 7.63729C8.19395 7.54939 8.31318 7.5 8.4375 7.5H9.375C9.49932 7.5 9.61855 7.54939 9.70646 7.63729C9.79436 7.7252 9.84375 7.84443 9.84375 7.96875C9.84375 8.09307 9.79436 8.2123 9.70646 8.30021C9.61855 8.38811 9.49932 8.4375 9.375 8.4375H8.4375C8.31318 8.4375 8.19395 8.38811 8.10604 8.30021C8.01814 8.2123 7.96875 8.09307 7.96875 7.96875ZM5.625 12.1875V10.7812C5.625 10.6569 5.67439 10.5377 5.76229 10.4498C5.8502 10.3619 5.96943 10.3125 6.09375 10.3125H8.90625C9.03057 10.3125 9.1498 10.3619 9.23771 10.4498C9.32561 10.5377 9.375 10.6569 9.375 10.7812V12.1875C9.375 12.3118 9.32561 12.431 9.23771 12.519C9.1498 12.6069 9.03057 12.6562 8.90625 12.6562H6.09375C5.96943 12.6562 5.8502 12.6069 5.76229 12.519C5.67439 12.431 5.625 12.3118 5.625 12.1875Z" fill="var(--fill-0, black)"/>
</g>
</svg>
