<svg preserveAspectRatio="none" width="100%" height="100%" overflow="visible" style="display: block;" viewBox="0 0 15 15" fill="none" xmlns="http://www.w3.org/2000/svg">
<g id="SVG">
<path id="Vector" d="M12.5 2H2.5C1.94772 2 1.5 2.44772 1.5 3V9.5C1.5 10.0523 1.94772 10.5 2.5 10.5H12.5C13.0523 10.5 13.5 10.0523 13.5 9.5V3C13.5 2.44772 13.0523 2 12.5 2Z" stroke="var(--stroke-0, black)" stroke-width="1.2"/>
<path id="Vector_2" d="M11.7 3.5H3.3C3.13431 3.5 3 3.63431 3 3.8V8.7C3 8.86569 3.13431 9 3.3 9H11.7C11.8657 9 12 8.86569 12 8.7V3.8C12 3.63431 11.8657 3.5 11.7 3.5Z" fill="var(--fill-0, black)"/>
<path id="Vector_3" d="M0.5 11H14.5C14.5 11.552 14.052 12 13.5 12H1.5C0.948 12 0.5 11.552 0.5 11Z" fill="var(--fill-0, black)"/>
<path id="Vector_4" d="M5.5 10.5H9.5V11H5.5V10.5Z" fill="var(--fill-0, white)"/>
</g>
</svg>
