<svg preserveAspectRatio="none" width="100%" height="100%" overflow="visible" style="display: block;" viewBox="0 0 12.016 12.016" fill="none" xmlns="http://www.w3.org/2000/svg">
<g id="01 align center">
<path id="Vector" d="M12.016 11.309L8.885 8.178C9.69832 7.1833 10.0982 5.91405 10.0019 4.63278C9.90566 3.35152 9.32061 2.15627 8.3678 1.29426C7.41498 0.43226 6.1673 -0.0305496 4.88282 0.0015663C3.59835 0.0336822 2.37536 0.558266 1.46681 1.46681C0.558266 2.37536 0.0336822 3.59835 0.0015663 4.88282C-0.0305496 6.1673 0.43226 7.41498 1.29426 8.3678C2.15627 9.32061 3.35152 9.90566 4.63278 10.0019C5.91405 10.0982 7.1833 9.69832 8.178 8.885L11.309 12.016L12.016 11.309ZM5.016 9.016C4.22488 9.016 3.45152 8.78141 2.79372 8.34188C2.13593 7.90236 1.62324 7.27764 1.32049 6.54674C1.01774 5.81583 0.938522 5.01157 1.09286 4.23564C1.2472 3.45972 1.62817 2.74699 2.18758 2.18758C2.74699 1.62817 3.45972 1.2472 4.23564 1.09286C5.01157 0.938522 5.81583 1.01774 6.54674 1.32049C7.27764 1.62324 7.90236 2.13593 8.34188 2.79372C8.78141 3.45152 9.016 4.22488 9.016 5.016C9.01481 6.0765 8.593 7.09323 7.84312 7.84312C7.09323 8.593 6.0765 9.01481 5.016 9.016Z" fill="var(--fill-0, black)"/>
</g>
</svg>
