<svg xmlns="http://www.w3.org/2000/svg" viewBox="0 0 11.4222 16" fill="none" aria-hidden="true">
  <path d="M6.82353 1.17604L6.81236 1.19022C6.22271 1.90884 5.85083 2.7882 5.73692 3.73256V3.73729L5.71236 3.7763L5.68779 3.73729V3.73256C5.57276 2.7882 5.20088 1.90884 4.61235 1.19022L4.60119 1.17604L5.71236 1.52588e-05L6.82353 1.17604Z" fill="#161514"/>
  <path d="M5.70465 9.75125C5.70465 9.75125 5.708 9.76071 5.70912 9.76662C5.70912 9.76662 5.71247 9.75716 5.71359 9.75125C5.95592 8.20292 7.10394 6.97843 8.56243 6.70777L9.56415 3.98459C7.58638 3.98459 5.82526 5.66649 5.70912 7.84007C5.59409 5.66531 3.83185 3.98459 1.85408 3.98459L2.85581 6.70777C4.31429 6.97843 5.46231 8.20292 5.70465 9.75125Z" fill="#161514"/>
  <path d="M5.99586 12.7095C6.26611 11.693 7.1517 10.9827 8.15008 10.9827C8.32206 10.9827 8.58673 11.0134 8.86145 11.108L11.4222 8.40017L11.3686 8.36826C10.7722 8.01605 10.1614 7.84585 9.50135 7.84585C7.64307 7.84585 6.04276 9.27717 5.71108 11.1352C5.37941 9.27835 3.7791 7.84585 1.92082 7.84585C1.26082 7.84585 0.648836 8.01723 0.0536055 8.36826L0 8.40017L2.5596 11.1092C2.88681 10.9839 3.09676 10.9827 3.27321 10.9827C4.27159 10.9827 5.15829 11.693 5.42743 12.7095L5.45535 12.8135C5.48773 12.9624 5.50672 13.1149 5.51118 13.265V13.4908C5.44865 14.6491 4.60997 15.5816 3.51778 15.7057L3.49656 15.7081L3.22072 16H8.20591L7.93007 15.7081L7.90886 15.7057C6.81555 15.5816 5.97687 14.6491 5.91545 13.4908V13.265C5.91992 13.1137 5.9389 12.9624 5.97129 12.8135L5.99921 12.7095H5.99586Z" fill="#161514"/>
</svg>
