<svg preserveAspectRatio="none" width="100%" height="100%" overflow="visible" style="display: block;" viewBox="0 0 100 100" fill="none" xmlns="http://www.w3.org/2000/svg">
<g id="logo_icon">
<g id="Vector">
<path d="M53.4046 26.0985L53.3704 26.142C51.5645 28.3429 50.4255 31.0362 50.0766 33.9286V33.9431L50.0014 34.0625L49.9261 33.9431V33.9286C49.5738 31.0362 48.4348 28.3429 46.6323 26.142L46.5981 26.0985L50.0014 22.4966L53.4046 26.0985Z" fill="var(--fill-0, white)"/>
<path d="M49.9923 52.3636C49.9923 52.3636 50.0025 52.3926 50.006 52.4107C50.006 52.4107 50.0162 52.3817 50.0197 52.3636C50.7619 47.6214 54.278 43.8711 58.745 43.0422L61.8131 34.7017C55.7556 34.7017 50.3617 39.8529 50.006 46.5101C49.6537 39.8493 44.2563 34.7017 38.1989 34.7017L41.2669 43.0422C45.7339 43.8711 49.2501 47.6214 49.9923 52.3636Z" fill="var(--fill-0, white)"/>
<path d="M50.8722 61.4252C51.7 58.312 54.4123 56.1364 57.4701 56.1364C57.9969 56.1364 58.8075 56.2305 59.6489 56.5201L67.4918 48.2267L67.3276 48.129C65.5011 47.0502 63.6302 46.5289 61.6088 46.5289C55.9173 46.5289 51.0159 50.9127 50 56.6034C48.9842 50.9164 44.0828 46.5289 38.3913 46.5289C36.3699 46.5289 34.4955 47.0538 32.6725 48.129L32.5083 48.2267L40.3478 56.5237C41.3499 56.14 41.993 56.1364 42.5334 56.1364C45.5912 56.1364 48.307 58.312 49.1313 61.4252L49.2168 61.7438C49.316 62.1999 49.3741 62.6669 49.3878 63.1266V63.8181C49.1962 67.3657 46.6276 70.2218 43.2824 70.6019L43.2175 70.6092L42.3726 71.5033H57.6411L56.7963 70.6092L56.7313 70.6019C53.3828 70.2218 50.8141 67.3657 50.626 63.8181V63.1266C50.6397 62.6633 50.6978 62.1999 50.797 61.7438L50.8825 61.4252H50.8722Z" fill="var(--fill-0, white)"/>
</g>
</g>
</svg>
