<svg preserveAspectRatio="none" width="100%" height="100%" overflow="visible" style="display: block;" viewBox="0 0 87.1395 13.6944" fill="none" xmlns="http://www.w3.org/2000/svg">
<g id="Social media icons">
<path id="Vector" d="M42.042 10.9851C41.6047 11.4975 40.431 12.6206 38.2113 12.6206H38.2002C35.9405 12.6206 34.7988 11.504 34.3709 10.9952C33.9376 10.4821 33.0203 9.04571 33.0203 6.78869C33.0203 4.36316 33.9059 3.14427 34.3407 2.64591C34.77 2.1508 35.8711 1.07378 38.1865 1.07378H38.1987C40.5177 1.07378 41.581 2.14287 42.0143 2.63727C42.4505 3.13491 43.3401 4.34624 43.3401 6.77645C43.3401 9.36799 42.4793 10.4695 42.042 10.9851ZM38.1804 5.31087e-06C33.9768 5.31087e-06 31.2741 3.39633 31.2741 6.77465C31.2741 10.0979 33.838 13.6944 38.175 13.6944C41.7784 13.6944 45.0863 10.8271 45.0863 6.77465C45.0863 2.75394 41.7439 5.31087e-06 38.1804 5.31087e-06Z" fill="var(--fill-0, black)"/>
<path id="Vector_2" d="M10.8973 0.269263C10.8973 0.269263 10.7262 1.59294 10.7262 1.98795V8.72983C10.7262 10.6757 9.86172 11.716 9.35973 12.2187C8.82718 12.752 7.32374 13.694 5.41217 13.694C3.55346 13.694 2.08454 12.7358 1.56386 12.214C1.10107 11.7509 0.121192 10.6322 0.121192 8.67186V2.32679C0.121192 2.1219 0.0845138 1.41001 0.0111578 0.616746L1.05314e-05 0.269263H1.86519V8.94516C1.86519 10.4388 2.56495 11.2735 2.89362 11.6148C3.22084 11.9562 4.0968 12.7261 5.66065 12.7261C7.236 12.7261 8.09902 11.9562 8.42229 11.6156C8.74699 11.276 9.43704 10.3862 9.43704 8.94516V2.06609C9.43704 1.59654 9.23064 0.269263 9.23064 0.269263H10.8973Z" fill="var(--fill-0, black)"/>
<path id="Vector_3" d="M68.7431 10.6239V3.06749C68.7431 1.90189 68.7661 1.36788 68.9049 0.506199L68.9074 0.269263H66.8323L66.8351 0.506199C66.9736 1.36788 66.9966 1.90189 66.9966 3.06749V10.6239C66.9966 11.7898 66.9736 12.3235 66.8351 13.1855L66.8323 13.4221H68.9074L68.9049 13.1855C68.7661 12.3235 68.7431 11.7898 68.7431 10.6239Z" fill="var(--fill-0, black)"/>
<path id="Vector_4" d="M57.219 0.269263H50.9902L50.9928 0.5062C51.0075 0.597661 51.142 1.60626 51.142 2.0362L51.1546 10.6239C51.1546 11.7895 51.1316 12.3235 50.9928 13.1852L50.9902 13.4221H53.0654L53.0625 13.1852C52.9241 12.3235 52.9007 11.7895 52.9007 10.6239V1.19504H56.3618C57.7171 1.19504 59.3003 2.37576 59.3003 4.21724C59.3003 5.63885 58.2316 7.283 56.2819 7.283H53.8497L54.2999 8.21274H56.6268C59.8239 8.21274 61.0558 6.00326 61.0558 4.16647C61.0558 2.29834 59.4855 0.269263 57.219 0.269263Z" fill="var(--fill-0, black)"/>
<path id="Vector_5" d="M22.4877 10.6239C22.4877 10.6239 22.4934 7.28264 22.5046 1.14283C24.1209 1.19684 25.6995 1.46583 27.2299 1.79747H27.5165L27.349 0.269263H15.8572L15.6893 1.79747H15.9986C17.529 1.46583 19.1072 1.1972 20.7235 1.14319L20.7412 10.6239C20.7412 11.7898 20.7182 12.3235 20.5797 13.1855L20.5768 13.4221H22.652L22.6495 13.1855C22.5107 12.3235 22.4877 11.7898 22.4877 10.6239Z" fill="var(--fill-0, black)"/>
<path id="Vector_6" d="M80.9857 0.269263H78.9825C79.0849 0.54941 79.1475 0.84864 79.1633 1.16083C79.1964 1.59654 79.1252 2.0344 78.9522 2.4449C78.9397 2.47659 73.7767 13.4203 73.7767 13.4203H75.1787L76.241 11.1777C76.7357 10.1162 77.7958 9.43379 78.9659 9.42371L82.3011 9.39418L81.8559 8.48533H77.5139L80.2151 2.74485L84.4151 11.7391C84.6381 12.214 84.8398 12.7606 84.9469 13.2809L84.9757 13.4203H87.1394L80.9857 0.269263Z" fill="var(--fill-0, black)"/>
</g>
</svg>
