<svg preserveAspectRatio="none" width="100%" height="100%" overflow="visible" style="display: block;" viewBox="0 0 20 20" fill="none" xmlns="http://www.w3.org/2000/svg">
<g id="SVG">
<path id="Vector" d="M16.6675 2.66493H3.3342C2.59782 2.66493 2.00087 3.26188 2.00087 3.99826V12.6649C2.00087 13.4013 2.59782 13.9983 3.3342 13.9983H16.6675C17.4039 13.9983 18.0009 13.4013 18.0009 12.6649V3.99826C18.0009 3.26188 17.4039 2.66493 16.6675 2.66493Z" stroke="var(--stroke-0, black)" stroke-width="1.6"/>
<path id="Vector_2" d="M15.5996 4.6658H4.39957C4.17865 4.6658 3.99957 4.84488 3.99957 5.0658V11.5991C3.99957 11.82 4.17865 11.9991 4.39957 11.9991H15.5996C15.8205 11.9991 15.9996 11.82 15.9996 11.5991V5.0658C15.9996 4.84488 15.8205 4.6658 15.5996 4.6658Z" fill="var(--fill-0, black)"/>
<path id="Vector_3" d="M0.666233 14.6658H19.3329C19.3329 15.4018 18.7356 15.9991 17.9996 15.9991H1.99957C1.26357 15.9991 0.666233 15.4018 0.666233 14.6658Z" fill="var(--fill-0, black)"/>
<path id="Vector_4" d="M7.3329 14.0017H12.6662V14.6684H7.3329V14.0017Z" fill="var(--fill-0, white)"/>
</g>
</svg>
