<svg preserveAspectRatio="none" width="100%" height="100%" overflow="visible" style="display: block;" viewBox="0 0 20 20" fill="none" xmlns="http://www.w3.org/2000/svg">
<g id="SVG">
<path id="Vector" fill-rule="evenodd" clip-rule="evenodd" d="M3.75 1.875C3.58424 1.875 3.42527 1.94085 3.30806 2.05806C3.19085 2.17527 3.125 2.33424 3.125 2.5C3.125 2.66576 3.19085 2.82473 3.30806 2.94194C3.42527 3.05915 3.58424 3.125 3.75 3.125V16.875H3.125C2.95924 16.875 2.80027 16.9408 2.68306 17.0581C2.56585 17.1753 2.5 17.3342 2.5 17.5C2.5 17.6658 2.56585 17.8247 2.68306 17.9419C2.80027 18.0592 2.95924 18.125 3.125 18.125H16.875C17.0408 18.125 17.1997 18.0592 17.3169 17.9419C17.4342 17.8247 17.5 17.6658 17.5 17.5C17.5 17.3342 17.4342 17.1753 17.3169 17.0581C17.1997 16.9408 17.0408 16.875 16.875 16.875H16.25V3.125C16.4158 3.125 16.5747 3.05915 16.6919 2.94194C16.8092 2.82473 16.875 2.66576 16.875 2.5C16.875 2.33424 16.8092 2.17527 16.6919 2.05806C16.5747 1.94085 16.4158 1.875 16.25 1.875H3.75ZM7.5 5C7.33424 5 7.17527 5.06585 7.05806 5.18306C6.94085 5.30027 6.875 5.45924 6.875 5.625C6.875 5.79076 6.94085 5.94973 7.05806 6.06694C7.17527 6.18415 7.33424 6.25 7.5 6.25H8.75C8.91576 6.25 9.07473 6.18415 9.19194 6.06694C9.30915 5.94973 9.375 5.79076 9.375 5.625C9.375 5.45924 9.30915 5.30027 9.19194 5.18306C9.07473 5.06585 8.91576 5 8.75 5H7.5ZM6.875 8.125C6.875 7.95924 6.94085 7.80027 7.05806 7.68306C7.17527 7.56585 7.33424 7.5 7.5 7.5H8.75C8.91576 7.5 9.07473 7.56585 9.19194 7.68306C9.30915 7.80027 9.375 7.95924 9.375 8.125C9.375 8.29076 9.30915 8.44973 9.19194 8.56694C9.07473 8.68415 8.91576 8.75 8.75 8.75H7.5C7.33424 8.75 7.17527 8.68415 7.05806 8.56694C6.94085 8.44973 6.875 8.29076 6.875 8.125ZM7.5 10C7.33424 10 7.17527 10.0658 7.05806 10.1831C6.94085 10.3003 6.875 10.4592 6.875 10.625C6.875 10.7908 6.94085 10.9497 7.05806 11.0669C7.17527 11.1842 7.33424 11.25 7.5 11.25H8.75C8.91576 11.25 9.07473 11.1842 9.19194 11.0669C9.30915 10.9497 9.375 10.7908 9.375 10.625C9.375 10.4592 9.30915 10.3003 9.19194 10.1831C9.07473 10.0658 8.91576 10 8.75 10H7.5ZM10.625 5.625C10.625 5.45924 10.6908 5.30027 10.8081 5.18306C10.9253 5.06585 11.0842 5 11.25 5H12.5C12.6658 5 12.8247 5.06585 12.9419 5.18306C13.0592 5.30027 13.125 5.45924 13.125 5.625C13.125 5.79076 13.0592 5.94973 12.9419 6.06694C12.8247 6.18415 12.6658 6.25 12.5 6.25H11.25C11.0842 6.25 10.9253 6.18415 10.8081 6.06694C10.6908 5.94973 10.625 5.79076 10.625 5.625ZM11.25 7.5C11.0842 7.5 10.9253 7.56585 10.8081 7.68306C10.6908 7.80027 10.625 7.95924 10.625 8.125C10.625 8.29076 10.6908 8.44973 10.8081 8.56694C10.9253 8.68415 11.0842 8.75 11.25 8.75H12.5C12.6658 8.75 12.8247 8.68415 12.9419 8.56694C13.0592 8.44973 13.125 8.29076 13.125 8.125C13.125 7.95924 13.0592 7.80027 12.9419 7.68306C12.8247 7.56585 12.6658 7.5 12.5 7.5H11.25ZM10.625 10.625C10.625 10.4592 10.6908 10.3003 10.8081 10.1831C10.9253 10.0658 11.0842 10 11.25 10H12.5C12.6658 10 12.8247 10.0658 12.9419 10.1831C13.0592 10.3003 13.125 10.4592 13.125 10.625C13.125 10.7908 13.0592 10.9497 12.9419 11.0669C12.8247 11.1842 12.6658 11.25 12.5 11.25H11.25C11.0842 11.25 10.9253 11.1842 10.8081 11.0669C10.6908 10.9497 10.625 10.7908 10.625 10.625ZM7.5 16.25V14.375C7.5 14.2092 7.56585 14.0503 7.68306 13.9331C7.80027 13.8158 7.95924 13.75 8.125 13.75H11.875C12.0408 13.75 12.1997 13.8158 12.3169 13.9331C12.4342 14.0503 12.5 14.2092 12.5 14.375V16.25C12.5 16.4158 12.4342 16.5747 12.3169 16.6919C12.1997 16.8092 12.0408 16.875 11.875 16.875H8.125C7.95924 16.875 7.80027 16.8092 7.68306 16.6919C7.56585 16.5747 7.5 16.4158 7.5 16.25Z" fill="var(--fill-0, black)"/>
</g>
</svg>
